<svg width="198" height="70" viewBox="0 0 198 70" fill="none" xmlns="http://www.w3.org/2000/svg">
<g clip-path="url(#clip0_23944_249648)">
<path d="M56.6443 34.8663H54.0476C52.5934 30.4207 51.4509 28.5598 49.2696 26.4921C47.0884 24.4244 44.3878 23.2872 41.6872 23.2872C37.7402 23.2872 34.9357 25.7684 34.9357 29.1801C34.9357 32.5918 37.7402 35.1764 44.8033 38.0712C54.8785 42.31 58.8256 46.6521 58.8256 53.889C58.8256 62.9869 52.3857 69.2933 43.1414 69.2933C40.233 69.2933 35.1435 68.1561 32.0274 66.9155C31.0926 66.502 30.3655 66.2952 29.7423 66.2952C28.8075 66.2952 28.1842 66.9155 27.1455 69.19H24.5488V52.4417H27.3533C29.5345 61.3327 34.3125 65.8816 41.3756 65.8816C45.9458 65.8816 49.0619 63.297 49.0619 59.265C49.0619 56.0601 46.2574 53.4755 39.1943 50.4773C29.0152 46.1352 24.7566 41.4829 24.7566 34.7629C24.7566 26.182 31.508 19.9789 40.6485 19.9789C43.1414 19.9789 45.4265 20.3924 48.6464 21.4263C50.3083 21.9432 51.2431 22.15 51.8663 22.15C53.2166 22.15 53.8398 21.633 54.3592 20.1857H56.6443V34.8663Z" fill="#073B4C"/>
<path d="M110.421 61.3327L111.979 63.5038C108.136 67.7426 105.02 69.2933 100.553 69.2933C95.5674 69.2933 93.2823 67.329 92.2436 62.1598C86.6347 67.2256 81.9606 69.2933 76.144 69.2933C69.4964 69.2933 64.8223 64.7444 64.8223 58.5413C64.8223 54.1992 66.8996 50.7875 71.366 47.686C75.1053 45.1013 80.091 43.137 92.2436 39.5186V32.0749C92.2436 25.8718 89.6469 23.1838 83.7264 23.1838C80.091 23.1838 77.2865 24.838 77.2865 26.9057C77.2865 27.526 77.5981 28.1463 78.4291 29.1801C79.7794 30.8343 80.2987 32.0749 80.2987 33.5223C80.2987 37.0373 77.4943 39.4152 73.3395 39.4152C69.1848 39.4152 66.7958 36.934 66.7958 32.6952C66.7958 25.1481 74.4821 19.9789 86.0115 19.9789C98.4758 19.9789 106.162 25.2515 106.162 33.8324V60.2989C106.162 61.953 106.889 62.7801 108.344 62.7801C108.863 62.7801 109.071 62.6767 109.382 62.3666L110.421 61.3327ZM92.1398 57.7143V43.0337C83.9341 45.2047 79.6755 49.4435 79.6755 55.233C79.6755 59.265 81.7529 62.0564 84.8689 62.0564C87.3618 62.0564 89.3353 60.9192 92.1398 57.7143Z" fill="#073B4C"/>
<path d="M197.36 65.3647V67.846H173.159V65.3647C176.898 65.158 178.248 63.7106 178.144 59.6786V35.073C178.144 29.0767 176.586 26.6989 172.743 26.6989C170.874 26.6989 169.212 27.4226 167.031 29.0767C165.68 30.1106 164.018 32.0749 164.018 32.5918V59.6786C164.018 63.5038 165.369 65.158 168.796 65.3647V67.846H145.01V65.3647C148.646 65.158 149.996 63.6072 149.892 59.6786V35.073C149.892 29.0767 148.334 26.6989 144.387 26.6989C142.621 26.6989 140.959 27.4226 138.882 28.9733C137.532 30.1106 135.87 31.9715 135.87 32.5918V59.6786C135.87 63.5038 137.116 65.0546 140.544 65.3647V67.846H116.135V65.3647C120.497 64.7444 121.64 63.5038 121.744 59.3684V29.4903C121.64 25.2515 120.497 24.0109 116.135 23.494V21.1161H135.558V28.7666C139.505 22.5635 143.972 19.9789 150.515 19.9789C156.955 19.9789 160.487 22.3567 163.499 28.7666C168.796 22.2533 172.639 19.9789 178.56 19.9789C186.973 19.9789 192.271 25.4583 192.271 34.1426V59.6786C192.167 63.814 193.517 65.2613 197.36 65.3647Z" fill="#073B4C"/>
<path d="M16.6768 0.209027C14.6782 0.740819 12.5798 1.78778 10.7644 3.11726C9.64858 3.93156 8.44946 5.14472 5.50162 8.35209C4.58563 9.3492 3.26992 10.7784 2.60374 11.5096C0.422009 13.8861 -0.344096 15.3651 0.138883 16.3622C0.53859 17.2098 0.721791 17.2264 11.1808 17.2264C20.1743 17.2429 20.9403 17.2264 22.1894 16.9272C23.8049 16.5284 25.6536 15.714 27.2857 14.6505C29.2342 13.4041 29.1177 13.5204 36.1625 5.82608C37.1118 4.81235 38.1111 3.54934 38.4108 3.05079C39.0604 1.90412 39.127 0.923621 38.5941 0.391829C38.2276 0.0428406 38.2276 0.0428415 27.8686 0.00960469C19.5746 -0.0236332 17.343 0.0262231 16.6768 0.209027Z" fill="#06D6A0"/>
</g>
<defs>
<clipPath id="clip0_23944_249648">
<rect width="198" height="70" fill="white"/>
</clipPath>
</defs>
</svg>
